<svg width="70" height="59" fill="none" xmlns="http://www.w3.org/2000/svg"><g clip-path="url(#clip0)"><path d="M15.775 47.642c7.53 2.018 13.501-1.188 13.733-1.255l3.13-11.684-13.552-3.63-1.641 6.123.884 4.292 2.946-3.265 2.469.661-.548 2.046c-1.563.538-3.943.904-6.09.33-4.484-1.203-6.145-4.885-4.675-10.37 1.364-5.091 4.605-7.228 9.126-6.017 2.704.725 4.294 2.545 4.362 4.994l.022.786 7.425.62c-.213-1.53 1.385-9.604-10.124-12.688-8.733-2.34-15.9 1.835-18.234 10.547-2.364 8.822 1.853 16.122 10.767 18.51z" fill="#F8A7A7"/></g><path d="M44.026 56.645c-2.628-.704-4.847-1.878-6.66-3.524-1.772-1.667-2.985-3.632-3.638-5.894-.652-2.262-.647-4.63.015-7.102.663-2.473 1.842-4.526 3.539-6.158 1.696-1.633 3.725-2.713 6.085-3.24 2.4-.549 4.914-.472 7.541.232 2.628.704 4.828 1.89 6.6 3.558 1.782 1.636 2.998 3.586 3.651 5.848.653 2.262.648 4.63-.014 7.102-.663 2.473-1.842 4.525-3.539 6.158-1.696 1.633-3.729 2.728-6.098 3.286-2.36.527-4.855.438-7.482-.266zm1.59-5.935c1.855.497 3.535.285 5.04-.637 1.546-.944 2.6-2.467 3.163-4.569.563-2.102.408-3.932-.467-5.492-.834-1.582-2.18-2.621-4.034-3.118-1.854-.497-3.554-.273-5.1.67-1.536.914-2.586 2.422-3.15 4.524-.562 2.102-.411 3.948.455 5.538.874 1.56 2.238 2.588 4.093 3.084z" fill="#F8A7A7"/><path fill="#F8A7A7" d="M48.348 40.841l2 3.464-3.464 2-2-3.464z"/><defs><clipPath id="clip0"><path fill="#fff" transform="rotate(15 -51.053 37.49)" d="M0 0h30v30H0z"/></clipPath></defs></svg>