<svg width="120" height="120" fill="none" xmlns="http://www.w3.org/2000/svg"><g clip-path="url(#clip0)"><path d="M92.847 104.541a2.723 2.723 0 01-3.516 1.581l-5.046-1.916L7.45 75.035A2.727 2.727 0 017.3 70l77.513-34.712a2.723 2.723 0 012.987.502 2.723 2.723 0 01.68 2.951L77.27 68.266l15.515 34.19c.302.673.313 1.423.062 2.085z" fill="#000" fill-opacity=".56"/><g clip-path="url(#clip1)" fill="#A7C0FF"><path d="M52.514 65.497a5.04 5.04 0 00-5.037 5.037 5.04 5.04 0 005.037 5.036 5.04 5.04 0 005.037-5.036 5.04 5.04 0 00-5.037-5.037zm-.382 3.543c-.625 0-1.146.521-1.146 1.146h-1.667c.034-1.563 1.285-2.813 2.813-2.813v1.667z"/><path d="M67.798 69.492c-1.702-2.12-7.78-9.032-15.284-9.032-7.503 0-13.582 6.913-15.284 9.032-.486.59-.486 1.459 0 2.084 1.702 2.119 7.781 9.031 15.284 9.031 7.503 0 13.582-6.912 15.284-9.031.486-.59.486-1.46 0-2.084zm-15.284 8.336a7.294 7.294 0 01-7.294-7.294 7.294 7.294 0 017.294-7.295 7.294 7.294 0 017.295 7.295 7.294 7.294 0 01-7.295 7.294z"/></g></g><defs><clipPath id="clip0"><path fill="#fff" transform="rotate(-69.21 63.029 43.489)" d="M0 0h93.035v93.035H0z"/></clipPath><clipPath id="clip1"><path fill="#fff" transform="translate(36.866 54.885)" d="M0 0h31.297v31.297H0z"/></clipPath></defs></svg>