<svg width="127" height="136" fill="none" xmlns="http://www.w3.org/2000/svg"><g clip-path="url(#clip0)"><path d="M98.027 110.358a2.87 2.87 0 01-3.707 1.667l-5.32-2.02L7.984 79.246a2.875 2.875 0 01-.158-5.308l81.73-36.6a2.871 2.871 0 013.15.53 2.87 2.87 0 01.716 3.11l-11.819 31.13 16.359 36.052c.319.709.33 1.5.065 2.198z" fill="#000" fill-opacity=".56"/><g clip-path="url(#clip1)" fill="#A7C0FF"><path d="M55.5 69.19c-2.93 0-5.31 2.38-5.31 5.31 0 2.93 2.38 5.31 5.31 5.31 2.93 0 5.31-2.38 5.31-5.31 0-2.93-2.38-5.31-5.31-5.31zm-.403 3.735c-.66 0-1.209.55-1.209 1.209H52.13c.037-1.648 1.356-2.967 2.967-2.967v1.758z"/><path d="M71.615 73.401c-1.794-2.234-8.204-9.522-16.115-9.522-7.911 0-14.32 7.288-16.115 9.522-.513.623-.513 1.538 0 2.198 1.794 2.234 8.204 9.522 16.115 9.522 7.911 0 14.32-7.288 16.115-9.522.513-.623.513-1.538 0-2.198zM55.5 82.191a7.69 7.69 0 01-7.691-7.691 7.69 7.69 0 017.691-7.691 7.69 7.69 0 017.691 7.691 7.69 7.69 0 01-7.691 7.692z"/></g></g><path d="M19.802 92.854l-8.834 8.989-1.053-.387-.892-12.562 1.094.402.752 11.222 7.88-8.05 1.053.386zm11.757 4.32l1.032.38-3.96 10.779-1.033-.38 3.96-10.78zm1.48-2.433a.91.91 0 01-.516-.447.87.87 0 01-.028-.69.87.87 0 01.468-.508.87.87 0 01.69-.028.87.87 0 01.508.468c.11.212.121.435.035.67a.869.869 0 01-.468.507.87.87 0 01-.69.028zm20.438 16.885l-9.271-3.407c-.282.85-.344 1.679-.187 2.486a4.41 4.41 0 001.056 2.1c.557.61 1.262 1.073 2.116 1.386a5.308 5.308 0 002.078.342 4.126 4.126 0 001.925-.582l.348.901a4.881 4.881 0 01-2.254.649 6.106 6.106 0 01-2.459-.388c-1.074-.395-1.945-.98-2.612-1.757a5.502 5.502 0 01-1.27-2.669c-.164-.998-.052-2.027.338-3.087.384-1.047.948-1.902 1.692-2.566a5.333 5.333 0 012.58-1.279c.956-.18 1.923-.09 2.9.269.978.359 1.767.914 2.365 1.666a5.062 5.062 0 011.133 2.596c.15.992.034 2.012-.35 3.058l-.127.282zm-3.353-6.693c-.757-.279-1.502-.357-2.234-.235a4.081 4.081 0 00-1.99.886c-.58.474-1.04 1.087-1.378 1.837l8.26 3.035c.242-.786.289-1.55.14-2.292a4.303 4.303 0 00-.943-1.964c-.48-.567-1.098-.989-1.855-1.267zm33.342 11.313l-8.05 9.277-.97-.357-.197-10.69-7.092 8.012-.95-.349-.128-12.282.99.364.058 10.944 7.212-8.273.888.326.127 10.946 7.162-8.267.95.349z" fill="#000" fill-opacity=".56"/><defs><clipPath id="clip0"><path fill="#fff" transform="rotate(-69.21 66.616 45.826)" d="M0 0h98.098v98.098H0z"/></clipPath><clipPath id="clip1"><path fill="#fff" transform="translate(39 58)" d="M0 0h33v33H0z"/></clipPath></defs></svg>