<svg width="60" height="60" fill="none" xmlns="http://www.w3.org/2000/svg"><path d="M44.74 5.758C41.483 1.938 36.524 0 30 0c-6.524 0-11.483 1.937-14.74 5.758-3.275 3.841-3.764 8.342-3.764 10.683V43.56c0 2.34.489 6.84 3.764 10.682C18.517 58.062 23.476 60 30 60c6.524 0 11.483-1.937 14.74-5.758 3.275-3.841 3.764-8.342 3.764-10.682V16.44c0-2.34-.489-6.84-3.764-10.682zM30 20.903a2.454 2.454 0 01-2.452-2.451v-5.254c0-1.352 1.1-2.452 2.452-2.452 1.352 0 2.452 1.1 2.452 2.452v5.254c0 1.351-1.1 2.451-2.452 2.451zM46.568 43.56c0 2.421-.798 14.505-16.568 14.505-15.77 0-16.568-12.084-16.568-14.505V16.44c0-2.37.768-14.001 15.6-14.487V8.92a4.394 4.394 0 00-3.42 4.278v5.254a4.394 4.394 0 003.42 4.278v7.952a.968.968 0 101.936 0V22.73a4.394 4.394 0 003.42-4.278v-5.254a4.394 4.394 0 00-3.42-4.278V1.953c14.832.486 15.6 12.116 15.6 14.488V43.56z" fill="#000"/></svg>