<svg width="51" height="51" fill="none" xmlns="http://www.w3.org/2000/svg"><g clip-path="url(#clip0)" fill="#000" fill-opacity=".56"><path d="M46.04 25.346a4.898 4.898 0 00-4.893-4.892 4.86 4.86 0 00-2.175.512 4.9 4.9 0 00-4.621-3.292 4.86 4.86 0 00-2.616.76 4.894 4.894 0 00-6.085-1.968v-5.85A4.723 4.723 0 0020.932 5.9a4.723 4.723 0 00-4.718 4.717V25.84a6.594 6.594 0 00-4.114-2.915c-1.73-.4-3.512-.1-5.017.842l-1.42.89a1.494 1.494 0 00-.517 1.987c.064.114 6.353 11.546 8.905 17.013.043.094.087.186.13.276a12.446 12.446 0 004.657 5.164A12.665 12.665 0 0025.522 51h7.576a12.76 12.76 0 009.039-3.72 12.766 12.766 0 003.804-9.003l.098-10.407v-2.524zm-6.006 19.812a9.796 9.796 0 01-6.936 2.854h-7.576c-3.675 0-7.07-2.111-8.65-5.379a18.513 18.513 0 01-.114-.24c-2.118-4.538-6.6-12.811-8.316-15.952l.227-.142a3.626 3.626 0 012.759-.463 3.63 3.63 0 012.277 1.626l2.736 4.385a1.494 1.494 0 002.761-.79v-20.44a1.731 1.731 0 013.46 0v17.239a1.494 1.494 0 102.988 0v-6.883c0-1.05.854-1.905 1.904-1.905 1.05 0 1.905.855 1.905 1.905v6.883a1.494 1.494 0 002.988 0v-5.29c0-1.05.854-1.904 1.904-1.904 1.05 0 1.904.854 1.904 1.904v5.29a1.494 1.494 0 102.988 0v-2.51c0-1.05.854-1.904 1.904-1.904 1.05 0 1.904.854 1.904 1.904v2.501l-.097 10.402a9.798 9.798 0 01-2.92 6.91z"/><path d="M11.441 12.426c.825 0 1.494-.668 1.494-1.494 0-4.38 3.564-7.944 7.945-7.944 4.38 0 7.945 3.564 7.945 7.944a1.494 1.494 0 002.988 0C31.813 4.904 26.908 0 20.88 0S9.948 4.904 9.948 10.932c0 .826.668 1.494 1.493 1.494z"/></g><defs><clipPath id="clip0"><path fill="#fff" d="M0 0h51v51H0z"/></clipPath></defs></svg>